<mxfile host="Electron" modified="2025-04-26T11:48:59.284Z" agent="Mozilla/5.0 (X11; Linux x86_64) AppleWebKit/537.36 (KHTML, like Gecko) draw.io/24.5.3 Chrome/124.0.6367.207 Electron/30.0.6 Safari/537.36" etag="Zr9tiYAY3U27sM-q7GKO" version="24.5.3" type="device">
  <diagram name="第 1 页" id="EImq2FnYkqNTXNDGZi3I">
    <mxGraphModel dx="1384" dy="843" grid="1" gridSize="10" guides="1" tooltips="1" connect="1" arrows="1" fold="1" page="1" pageScale="1" pageWidth="827" pageHeight="1169" math="0" shadow="0">
      <root>
        <mxCell id="0" />
        <mxCell id="1" parent="0" />
        <mxCell id="8r7M1XJQ7sehqmHyqpZ4-33" value="" style="rounded=0;whiteSpace=wrap;html=1;fillColor=#dae8fc;strokeColor=#6c8ebf;" vertex="1" parent="1">
          <mxGeometry x="430" y="355" width="240" height="505" as="geometry" />
        </mxCell>
        <mxCell id="8r7M1XJQ7sehqmHyqpZ4-32" value="" style="rounded=0;whiteSpace=wrap;html=1;fillColor=#fff2cc;strokeColor=#d6b656;" vertex="1" parent="1">
          <mxGeometry x="190" y="355" width="240" height="505" as="geometry" />
        </mxCell>
        <mxCell id="8r7M1XJQ7sehqmHyqpZ4-5" value="" style="edgeStyle=orthogonalEdgeStyle;rounded=0;orthogonalLoop=1;jettySize=auto;html=1;" edge="1" parent="1" source="8r7M1XJQ7sehqmHyqpZ4-1" target="8r7M1XJQ7sehqmHyqpZ4-4">
          <mxGeometry relative="1" as="geometry" />
        </mxCell>
        <mxCell id="8r7M1XJQ7sehqmHyqpZ4-9" value="普通商品" style="edgeLabel;html=1;align=center;verticalAlign=middle;resizable=0;points=[];" vertex="1" connectable="0" parent="8r7M1XJQ7sehqmHyqpZ4-5">
          <mxGeometry x="0.3474" y="4" relative="1" as="geometry">
            <mxPoint x="26" y="-8" as="offset" />
          </mxGeometry>
        </mxCell>
        <mxCell id="8r7M1XJQ7sehqmHyqpZ4-7" value="" style="edgeStyle=orthogonalEdgeStyle;rounded=0;orthogonalLoop=1;jettySize=auto;html=1;" edge="1" parent="1" source="8r7M1XJQ7sehqmHyqpZ4-1" target="8r7M1XJQ7sehqmHyqpZ4-6">
          <mxGeometry relative="1" as="geometry">
            <Array as="points">
              <mxPoint x="320" y="310" />
            </Array>
          </mxGeometry>
        </mxCell>
        <mxCell id="8r7M1XJQ7sehqmHyqpZ4-8" value="秒杀商品" style="edgeLabel;html=1;align=center;verticalAlign=middle;resizable=0;points=[];" vertex="1" connectable="0" parent="8r7M1XJQ7sehqmHyqpZ4-7">
          <mxGeometry x="0.38" y="-3" relative="1" as="geometry">
            <mxPoint x="3" y="-33" as="offset" />
          </mxGeometry>
        </mxCell>
        <mxCell id="8r7M1XJQ7sehqmHyqpZ4-1" value="活动页/搜索页等" style="rounded=0;whiteSpace=wrap;html=1;" vertex="1" parent="1">
          <mxGeometry x="380" y="280" width="120" height="60" as="geometry" />
        </mxCell>
        <mxCell id="8r7M1XJQ7sehqmHyqpZ4-30" style="edgeStyle=orthogonalEdgeStyle;rounded=0;orthogonalLoop=1;jettySize=auto;html=1;" edge="1" parent="1" source="8r7M1XJQ7sehqmHyqpZ4-4" target="8r7M1XJQ7sehqmHyqpZ4-24">
          <mxGeometry relative="1" as="geometry" />
        </mxCell>
        <mxCell id="8r7M1XJQ7sehqmHyqpZ4-4" value="活动页/搜索页等" style="rounded=0;whiteSpace=wrap;html=1;" vertex="1" parent="1">
          <mxGeometry x="510" y="370" width="120" height="60" as="geometry" />
        </mxCell>
        <mxCell id="8r7M1XJQ7sehqmHyqpZ4-15" value="" style="edgeStyle=orthogonalEdgeStyle;rounded=0;orthogonalLoop=1;jettySize=auto;html=1;" edge="1" parent="1" source="8r7M1XJQ7sehqmHyqpZ4-6" target="8r7M1XJQ7sehqmHyqpZ4-14">
          <mxGeometry relative="1" as="geometry" />
        </mxCell>
        <mxCell id="8r7M1XJQ7sehqmHyqpZ4-6" value="秒杀详情页" style="whiteSpace=wrap;html=1;rounded=0;" vertex="1" parent="1">
          <mxGeometry x="260" y="370" width="120" height="60" as="geometry" />
        </mxCell>
        <mxCell id="8r7M1XJQ7sehqmHyqpZ4-17" value="" style="edgeStyle=orthogonalEdgeStyle;rounded=0;orthogonalLoop=1;jettySize=auto;html=1;" edge="1" parent="1" source="8r7M1XJQ7sehqmHyqpZ4-14" target="8r7M1XJQ7sehqmHyqpZ4-16">
          <mxGeometry relative="1" as="geometry" />
        </mxCell>
        <mxCell id="8r7M1XJQ7sehqmHyqpZ4-14" value="秒杀购物车分组" style="whiteSpace=wrap;html=1;rounded=0;" vertex="1" parent="1">
          <mxGeometry x="260" y="470" width="120" height="60" as="geometry" />
        </mxCell>
        <mxCell id="8r7M1XJQ7sehqmHyqpZ4-19" value="" style="edgeStyle=orthogonalEdgeStyle;rounded=0;orthogonalLoop=1;jettySize=auto;html=1;" edge="1" parent="1" source="8r7M1XJQ7sehqmHyqpZ4-16" target="8r7M1XJQ7sehqmHyqpZ4-18">
          <mxGeometry relative="1" as="geometry" />
        </mxCell>
        <mxCell id="8r7M1XJQ7sehqmHyqpZ4-16" value="秒杀结算" style="whiteSpace=wrap;html=1;rounded=0;" vertex="1" parent="1">
          <mxGeometry x="260" y="560" width="120" height="60" as="geometry" />
        </mxCell>
        <mxCell id="8r7M1XJQ7sehqmHyqpZ4-22" value="" style="edgeStyle=orthogonalEdgeStyle;rounded=0;orthogonalLoop=1;jettySize=auto;html=1;" edge="1" parent="1" source="8r7M1XJQ7sehqmHyqpZ4-18" target="8r7M1XJQ7sehqmHyqpZ4-21">
          <mxGeometry relative="1" as="geometry" />
        </mxCell>
        <mxCell id="8r7M1XJQ7sehqmHyqpZ4-18" value="秒杀订单服务" style="whiteSpace=wrap;html=1;rounded=0;" vertex="1" parent="1">
          <mxGeometry x="260" y="660" width="120" height="60" as="geometry" />
        </mxCell>
        <mxCell id="8r7M1XJQ7sehqmHyqpZ4-21" value="收银台" style="whiteSpace=wrap;html=1;rounded=0;" vertex="1" parent="1">
          <mxGeometry x="260" y="770" width="120" height="60" as="geometry" />
        </mxCell>
        <mxCell id="8r7M1XJQ7sehqmHyqpZ4-23" value="" style="edgeStyle=orthogonalEdgeStyle;rounded=0;orthogonalLoop=1;jettySize=auto;html=1;" edge="1" parent="1" source="8r7M1XJQ7sehqmHyqpZ4-24" target="8r7M1XJQ7sehqmHyqpZ4-26">
          <mxGeometry relative="1" as="geometry" />
        </mxCell>
        <mxCell id="8r7M1XJQ7sehqmHyqpZ4-24" value="购物车" style="whiteSpace=wrap;html=1;rounded=0;" vertex="1" parent="1">
          <mxGeometry x="510" y="470" width="120" height="60" as="geometry" />
        </mxCell>
        <mxCell id="8r7M1XJQ7sehqmHyqpZ4-25" value="" style="edgeStyle=orthogonalEdgeStyle;rounded=0;orthogonalLoop=1;jettySize=auto;html=1;" edge="1" parent="1" source="8r7M1XJQ7sehqmHyqpZ4-26" target="8r7M1XJQ7sehqmHyqpZ4-28">
          <mxGeometry relative="1" as="geometry" />
        </mxCell>
        <mxCell id="8r7M1XJQ7sehqmHyqpZ4-26" value="结算页" style="whiteSpace=wrap;html=1;rounded=0;" vertex="1" parent="1">
          <mxGeometry x="510" y="560" width="120" height="60" as="geometry" />
        </mxCell>
        <mxCell id="8r7M1XJQ7sehqmHyqpZ4-27" value="" style="edgeStyle=orthogonalEdgeStyle;rounded=0;orthogonalLoop=1;jettySize=auto;html=1;" edge="1" parent="1" source="8r7M1XJQ7sehqmHyqpZ4-28" target="8r7M1XJQ7sehqmHyqpZ4-29">
          <mxGeometry relative="1" as="geometry" />
        </mxCell>
        <mxCell id="8r7M1XJQ7sehqmHyqpZ4-28" value="订单中台" style="whiteSpace=wrap;html=1;rounded=0;" vertex="1" parent="1">
          <mxGeometry x="510" y="660" width="120" height="60" as="geometry" />
        </mxCell>
        <mxCell id="8r7M1XJQ7sehqmHyqpZ4-29" value="收银台" style="whiteSpace=wrap;html=1;rounded=0;" vertex="1" parent="1">
          <mxGeometry x="510" y="770" width="120" height="60" as="geometry" />
        </mxCell>
        <mxCell id="8r7M1XJQ7sehqmHyqpZ4-31" value="秒杀商品流程" style="text;html=1;align=center;verticalAlign=middle;whiteSpace=wrap;rounded=0;" vertex="1" parent="1">
          <mxGeometry x="190" y="355" width="60" height="30" as="geometry" />
        </mxCell>
        <mxCell id="8r7M1XJQ7sehqmHyqpZ4-34" value="普通商品流程" style="text;html=1;align=center;verticalAlign=middle;whiteSpace=wrap;rounded=0;" vertex="1" parent="1">
          <mxGeometry x="440" y="355" width="50" height="35" as="geometry" />
        </mxCell>
      </root>
    </mxGraphModel>
  </diagram>
</mxfile>
